<?xml version="1.0"?>
<svg xmlns="http://www.w3.org/2000/svg" xmlns:xlink="http://www.w3.org/1999/xlink" xmlns:svgjs="http://svgjs.com/svgjs" version="1.1" width="512" height="512" x="0" y="0" viewBox="0 0 512 512" style="enable-background:new 0 0 512 512" xml:space="preserve" class=""><g><path xmlns="http://www.w3.org/2000/svg" d="m216.615 175.624 4.953 2.544 1.36-17h-7.928l.925 13.41a1.285 1.285 0 0 0 .69 1.046z" fill="#c4050c" data-original="#000000" style="" class=""/><path xmlns="http://www.w3.org/2000/svg" d="m382.19 179.6 2.641-2.465a3.021 3.021 0 0 0 .955-2.006l.963-13.962h-10.349c.746 2.928 1.59 5.831 2.54 8.684z" fill="#c4050c" data-original="#000000" style="" class=""/><path xmlns="http://www.w3.org/2000/svg" d="m96.591 398.332c0 28.419 13.22 52.505 39.293 71.589a148 148 0 0 0 38.234 19.933 156.369 156.369 0 0 0 40.006-20.186c26.814-19.059 40.411-43.06 40.411-71.336v-57.621a418.638 418.638 0 0 1 -78.972-45.584 418.521 418.521 0 0 1 -78.972 45.584zm38.109-16.363a6 6 0 0 1 8.478.343l21.376 23.179 43.746-40.068a6 6 0 0 1 8.106 8.849l-48.153 44.108a6 6 0 0 1 -8.463-.358l-25.43-27.575a6 6 0 0 1 .34-8.478z" fill="#c4050c" data-original="#000000" style="" class=""/><path xmlns="http://www.w3.org/2000/svg" d="m278.9 34.312a84.24 84.24 0 0 0 -13.375 4.818v8.61a53.764 53.764 0 0 0 36.624 51.054 53.91 53.91 0 0 0 34.516-50.294v-9.376a84.575 84.575 0 0 0 -13.375-4.812 6 6 0 0 1 -4.427-6.418l.6-5.748h-36.73l.6 5.748a6 6 0 0 1 -4.433 6.418zm11.537 6.688h23.633a6 6 0 0 1 0 12h-23.633a6 6 0 0 1 0-12zm0 21.788h23.633a6 6 0 0 1 0 12h-23.633a6 6 0 0 1 0-12z" fill="#c4050c" data-original="#000000" style="" class=""/><path xmlns="http://www.w3.org/2000/svg" d="m196.806 149.164h169.194a5.981 5.981 0 0 1 5.533 0h33.85v-13.486h-208.577z" fill="#c4050c" data-original="#000000" style="" class=""/><path xmlns="http://www.w3.org/2000/svg" d="m348.665 45.778v2.722a65.911 65.911 0 0 1 -44.46 62.311 5.994 5.994 0 0 1 -3.807.033l-1.364-.444a65.735 65.735 0 0 1 -45.51-62.663v-1.937a94.1 94.1 0 0 0 -23.759 22.6 102.051 102.051 0 0 0 -19.533 55.276h181.736a101.722 101.722 0 0 0 -19.539-55.356 94.009 94.009 0 0 0 -23.764-22.542z" fill="#c4050c" data-original="#000000" style="" class=""/><path xmlns="http://www.w3.org/2000/svg" d="m382.323 391.694h-115.788v6.638a90.868 90.868 0 0 1 -18.647 55.432h134.435zm-8.053 16.058a6 6 0 0 1 -12 0v-6.016a6 6 0 0 1 12 0z" fill="#c4050c" data-original="#000000" style="" class=""/><path xmlns="http://www.w3.org/2000/svg" d="m382.927 216.47a6 6 0 0 1 4.954-5.908 16.439 16.439 0 0 0 13.057-20.086 10.489 10.489 0 0 0 -5.726-7.161 15.051 15.051 0 0 1 -2.192 2.589l-7.416 6.922a7.777 7.777 0 0 1 -5.313 2.1 7.888 7.888 0 0 1 -1.939-.243 7.779 7.779 0 0 1 -5.48-5.1l-5.316-15.946c-1.361-4.086-2.523-8.266-3.5-12.478h-129.09l-1.937 24.23a7.8 7.8 0 0 1 -11.345 6.323l-10.552-5.412a13.214 13.214 0 0 1 -4.069-3.254 10.514 10.514 0 0 0 -6.317 7.43 16.438 16.438 0 0 0 13.1 20.092 6 6 0 0 1 4.965 5.911v.132a82.06 82.06 0 1 0 164.12 0z" fill="#c4050c" data-original="#000000" style="" class=""/><path xmlns="http://www.w3.org/2000/svg" d="m415.409 453.764v-67.384a41.218 41.218 0 0 0 -22.329-32.923l-8.784-3.749v29.986h4.027a6 6 0 0 1 6 6v68.07z" fill="#c4050c" data-original="#000000" style="" class=""/><path xmlns="http://www.w3.org/2000/svg" d="m334.729 320.936v-16.564a94.082 94.082 0 0 1 -67.269.174v16.39a84.168 84.168 0 0 0 67.269 0z" fill="#c4050c" data-original="#000000" style="" class=""/><path xmlns="http://www.w3.org/2000/svg" d="m364.244 341.15v38.544h8.052v-35.107z" fill="#c4050c" data-original="#000000" style="" class=""/><path xmlns="http://www.w3.org/2000/svg" d="m266.535 336.774v42.92h85.709v-43.665l-11.191-4.776a96.174 96.174 0 0 1 -75.879 1.736 5.987 5.987 0 0 1 1.361 3.785z" fill="#c4050c" data-original="#000000" style="" class=""/></g></svg>
