<svg width="230" height="215" viewBox="0 0 230 215" fill="none" xmlns="http://www.w3.org/2000/svg">
<path d="M205.766 21.957L47.5279 2.95652C41.2341 2.2081 34.9004 3.98671 29.9164 7.90216C24.9323 11.8176 21.7049 17.5502 20.942 23.8422L7.64167 134.609C6.89325 140.903 8.67186 147.236 12.5873 152.221C16.5028 157.205 22.2353 160.432 28.5273 161.195L99.7346 169.745L97.8345 185.569L74.0988 182.719C72.0004 182.467 69.8879 183.059 68.226 184.364C66.564 185.67 65.4888 187.582 65.2369 189.681C64.9849 191.779 65.5768 193.892 66.8824 195.554C68.188 197.216 70.1004 198.291 72.1987 198.543L135.494 206.143C137.592 206.395 139.705 205.803 141.367 204.497C143.029 203.192 144.104 201.279 144.356 199.181C144.608 197.083 144.016 194.97 142.71 193.308C141.405 191.646 139.493 190.571 137.394 190.319L113.658 187.469L115.558 171.645L186.766 180.195C193.059 180.944 199.393 179.165 204.377 175.25C209.361 171.334 212.589 165.602 213.352 159.31L226.652 48.5429C227.4 42.2491 225.622 35.9154 221.706 30.9314C217.791 25.9473 212.058 22.7199 205.766 21.957ZM188.666 164.372L30.4274 145.371C28.3301 145.117 26.4192 144.041 25.1141 142.38C23.8089 140.718 23.216 138.607 23.4655 136.509L25.3656 120.685L199.428 141.586L197.528 157.41C197.273 159.507 196.198 161.418 194.536 162.723C192.875 164.028 190.764 164.621 188.666 164.372Z" fill="#5F5555" fill-opacity="0.16"/>
</svg>
