<svg width="208" height="192" viewBox="0 0 208 192" fill="none" xmlns="http://www.w3.org/2000/svg">
<path d="M183.884 0.540527H24.5093C18.1712 0.547777 12.0947 3.06879 7.61301 7.55051C3.13129 12.0322 0.610277 18.1087 0.603027 24.4468V136.009C0.610277 142.347 3.13129 148.424 7.61301 152.906C12.0947 157.387 18.1712 159.908 24.5093 159.916H96.228V175.853H72.3218C70.2083 175.853 68.1814 176.693 66.687 178.187C65.1926 179.681 64.353 181.708 64.353 183.822C64.353 185.935 65.1926 187.962 66.687 189.457C68.1814 190.951 70.2083 191.791 72.3218 191.791H136.072C138.185 191.791 140.212 190.951 141.707 189.457C143.201 187.962 144.041 185.935 144.041 183.822C144.041 181.708 143.201 179.681 141.707 178.187C140.212 176.693 138.185 175.853 136.072 175.853H112.166V159.916H183.884C190.222 159.908 196.299 157.387 200.781 152.906C205.262 148.424 207.783 142.347 207.791 136.009V24.4468C207.783 18.1087 205.262 12.0322 200.781 7.55051C196.299 3.06879 190.222 0.547777 183.884 0.540527ZM183.884 143.978H24.5093C22.3966 143.976 20.3711 143.135 18.8772 141.641C17.3833 140.147 16.5429 138.122 16.5405 136.009V120.072H191.853V136.009C191.851 138.122 191.01 140.147 189.516 141.641C188.022 143.135 185.997 143.976 183.884 143.978Z" fill="#5F5555" fill-opacity="0.16"/>
</svg>
