<svg width="259" height="249" viewBox="0 0 259 249" fill="none" xmlns="http://www.w3.org/2000/svg">
<path d="M173.821 8.29359L23.2167 60.4355C17.2298 62.5159 12.3125 66.8862 9.54373 72.5876C6.77491 78.2889 6.38063 84.8557 8.44738 90.8474L44.9467 196.27C47.0272 202.257 51.3974 207.174 57.0988 209.943C62.8001 212.712 69.367 213.106 75.3586 211.04L143.13 187.576L148.345 202.636L125.754 210.457C123.757 211.149 122.116 212.605 121.193 214.507C120.27 216.408 120.14 218.598 120.831 220.595C121.522 222.592 122.979 224.233 124.88 225.156C126.781 226.079 128.971 226.209 130.968 225.518L191.21 204.661C193.207 203.97 194.848 202.513 195.771 200.612C196.694 198.711 196.824 196.521 196.133 194.524C195.442 192.527 193.985 190.886 192.084 189.963C190.183 189.04 187.993 188.909 185.996 189.601L163.405 197.422L158.191 182.362L225.963 158.898C231.95 156.817 236.867 152.447 239.636 146.746C242.405 141.044 242.799 134.478 240.732 128.486L204.233 23.0629C202.152 17.076 197.782 12.1587 192.081 9.38993C186.379 6.62111 179.813 6.22683 173.821 8.29359ZM220.749 143.837L70.1444 195.979C68.1472 196.668 65.9583 196.537 64.0578 195.614C62.1574 194.691 60.7006 193.052 60.0071 191.056L54.7929 175.996L220.458 118.64L225.672 133.7C226.361 135.697 226.229 137.886 225.306 139.787C224.383 141.687 222.744 143.144 220.749 143.837Z" fill="#5F5555" fill-opacity="0.16"/>
</svg>
