<svg width="223" height="208" viewBox="0 0 223 208" fill="none" xmlns="http://www.w3.org/2000/svg">
<path d="M198.413 14.9537L39.5139 2.65042C33.1941 2.16837 26.9412 4.21278 22.1269 8.33515C17.3125 12.4575 14.33 18.3212 13.8335 24.6398L5.22116 135.869C4.73911 142.189 6.78352 148.442 10.9059 153.256C15.0283 158.071 20.8919 161.053 27.2106 161.55L98.7153 167.086L97.485 182.976L73.6501 181.131C71.5429 180.968 69.4573 181.648 67.852 183.023C66.2466 184.397 65.2531 186.353 65.0899 188.461C64.9268 190.568 65.6074 192.653 66.982 194.259C68.3566 195.864 70.3126 196.858 72.4197 197.021L135.98 201.942C138.087 202.105 140.172 201.425 141.778 200.05C143.383 198.675 144.376 196.719 144.54 194.612C144.703 192.505 144.022 190.419 142.648 188.814C141.273 187.209 139.317 186.215 137.21 186.052L113.375 184.207L114.605 168.317L186.11 173.853C192.43 174.335 198.683 172.291 203.497 168.168C208.311 164.046 211.294 158.182 211.79 151.864L220.403 40.6341C220.885 34.3144 218.84 28.0614 214.718 23.2471C210.596 18.4328 204.732 15.4502 198.413 14.9537ZM187.34 157.963L28.4409 145.66C26.3347 145.494 24.3801 144.5 23.006 142.895C21.6319 141.291 20.9504 139.206 21.1111 137.1L22.3414 121.21L197.131 134.743L195.9 150.633C195.735 152.74 194.741 154.694 193.136 156.068C191.531 157.442 189.447 158.124 187.34 157.963Z" fill="#171515"/>
</svg>
