<svg width="21" height="21" viewBox="0 0 21 21" fill="none" xmlns="http://www.w3.org/2000/svg">
<path d="M17.0625 2.625H3.9375C3.58953 2.6254 3.25592 2.76381 3.00986 3.00986C2.76381 3.25592 2.6254 3.58953 2.625 3.9375V8.75003C2.625 16.088 8.84512 18.5219 10.092 18.9354C10.3566 19.0251 10.6434 19.0251 10.908 18.9354C12.1549 18.5219 18.375 16.088 18.375 8.75003V3.9375C18.3746 3.58953 18.2362 3.25592 17.9901 3.00986C17.7441 2.76381 17.4105 2.6254 17.0625 2.625ZM9.84375 7.21875C9.84375 7.0447 9.91289 6.87778 10.036 6.75471C10.159 6.63164 10.326 6.5625 10.5 6.5625C10.674 6.5625 10.841 6.63164 10.964 6.75471C11.0871 6.87778 11.1562 7.0447 11.1562 7.21875V10.5C11.1562 10.674 11.0871 10.841 10.964 10.964C10.841 11.0871 10.674 11.1562 10.5 11.1562C10.326 11.1562 10.159 11.0871 10.036 10.964C9.91289 10.841 9.84375 10.674 9.84375 10.5V7.21875ZM10.5 14.4375C10.3053 14.4375 10.115 14.3798 9.95311 14.2716C9.79123 14.1634 9.66506 14.0097 9.59056 13.8298C9.51605 13.65 9.49656 13.452 9.53454 13.2611C9.57252 13.0701 9.66627 12.8947 9.80394 12.7571C9.94161 12.6194 10.117 12.5256 10.308 12.4877C10.4989 12.4497 10.6968 12.4692 10.8767 12.5437C11.0566 12.6182 11.2103 12.7444 11.3185 12.9062C11.4266 13.0681 11.4844 13.2584 11.4844 13.4531C11.4844 13.7142 11.3807 13.9646 11.1961 14.1492C11.0115 14.3338 10.7611 14.4375 10.5 14.4375Z" fill="white"/>
</svg>
